<svg xmlns="http://www.w3.org/2000/svg" width="20" height="20" viewBox="0 0 20 20">
    <g fill="none" fill-rule="evenodd">
        <circle cx="10" cy="10" r="10" fill="#6BA33E"/>
        <path fill="#FFF" d="M10.723 15.16c0 .414-.309.74-.69.74-.384 0-.69-.332-.69-.74V6.51L6.51 9.544a.659.659 0 0 1-.974-.003.773.773 0 0 1-.003-1.043l3.856-4.13a.734.734 0 0 1 .107-.15.664.664 0 0 1 .542-.216.668.668 0 0 1 .466.216c.043.046.079.097.108.15l3.854 4.13a.778.778 0 0 1-.002 1.043.655.655 0 0 1-.974.003L10.723 6.58v8.58z"/>
    </g>
</svg>
