<svg xmlns="http://www.w3.org/2000/svg" width="30" height="30" viewBox="0 0 30 30">
    <path fill="#6BA33E" fill-rule="nonzero" d="M15 30c8.284 0 15-6.716 15-15 0-8.284-6.716-15-15-15C6.716 0 0 6.716 0 15c0 8.284 6.716 15 15 15zm0-2C7.82 28 2 22.18 2 15S7.82 2 15 2s13 5.82 13 13-5.82 13-13 13zm-2.152-10.204l-2.434-2.315a1.463 1.463 0 0 0-2.003 0 1.297 1.297 0 0 0 0 1.904l3.19 3.033c.114.108.242.194.378.258.56.456 1.393.43 1.92-.07l7.685-7.307a1.294 1.294 0 0 0-.002-1.903 1.464 1.464 0 0 0-2.001-.001l-6.733 6.4z"/>
</svg>
