<svg xmlns="http://www.w3.org/2000/svg" width="20" height="20" viewBox="0 0 20 20">
    <g fill="none" fill-rule="evenodd">
        <path fill="#C40000" d="M10 20c5.523 0 10-4.477 10-10S15.523 0 10 0 0 4.477 0 10s4.477 10 10 10z"/>
        <path fill="#FFF" d="M10.723 4.74c0-.414-.309-.74-.69-.74-.384 0-.69.332-.69.74v8.65L6.51 10.356a.659.659 0 0 0-.974.003.773.773 0 0 0-.003 1.043l3.856 4.13c.029.054.064.104.107.15.15.16.349.232.542.216a.668.668 0 0 0 .466-.216.747.747 0 0 0 .108-.15l3.854-4.13a.778.778 0 0 0-.002-1.043.655.655 0 0 0-.974-.003l-2.768 2.965v-8.58z"/>
    </g>
</svg>
