<svg xmlns="http://www.w3.org/2000/svg" width="62" height="62" viewBox="0 0 62 62">
    <g fill="none" fill-rule="evenodd" transform="translate(1 1)">
        <circle cx="30" cy="30" r="30" stroke="#67757F" stroke-width="2"/>
        <path fill="#67757F" d="M32 18.671v15.255c0 .826-.666 1.495-1.5 1.495-.828 0-1.5-.67-1.5-1.495V18.671l-6.426 7.437c-.587.679-1.537.68-2.132-.007-.59-.683-.587-1.794-.006-2.466l8.75-10.126c.358-.413.85-.576 1.314-.484.464-.092.956.07 1.314.484l8.75 10.126c.581.672.584 1.783-.006 2.466-.595.687-1.545.686-2.132.007L32 18.67zM41.667 43H45c0 2.208-2.232 4-4.992 4H19.992C17.228 47 15 45.219 15 43h3.333c0 .75.737 1.339 1.659 1.339h20.016c.915 0 1.659-.598 1.659-1.339zm.033-2c0-1.105.732-2 1.63-2h.04c.9 0 1.63.888 1.63 2v2h-3.3v-2zM15 41c0-1.105.732-2 1.63-2h.04c.9 0 1.63.888 1.63 2v2H15v-2z"/>
    </g>
</svg>
