<svg xmlns="http://www.w3.org/2000/svg" width="20" height="20" viewBox="0 0 20 20">
    <g fill="none" fill-rule="evenodd">
        <circle cx="10" cy="10" r="10" fill="#67757F"/>
        <path fill="#FFF" d="M4.79 10.673c-.414 0-.74-.309-.74-.69 0-.384.332-.69.74-.69h8.65L10.406 6.46a.659.659 0 0 1 .003-.974.773.773 0 0 1 1.043-.003l4.13 3.855c.054.03.104.065.15.108.16.15.232.349.216.542a.668.668 0 0 1-.216.466.747.747 0 0 1-.15.108l-4.13 3.854a.778.778 0 0 1-1.043-.002.655.655 0 0 1-.003-.974l2.965-2.768h-8.58z"/>
    </g>
</svg>
